# xmcd
#
# Track frame offsets:
#	150
#	20466
#	36560
#	53826
#	69591
#	89760
#	115719
#	138471
#	155598
#	175152
#	199534
#	218269
#	227340
#	245975
#	265915
#	279572
#
# Disc length: 3955 seconds
#
# Revision: 0
# Processed by: cddbd v1.4PL0 Copyright (c) Steve Scherf et al.
# Submitted via: EasyCDDAExtractor 4.6.0.1
#
DISCID=e50f7110
DTITLE=Alicia Keys - Songs in A Minor
DYEAR=2001
DGENRE=R&B
TTITLE0=Piano and I
TTITLE1=Girlfriend
TTITLE2=How Come You Don't Call Me
TTITLE3=Fallin'
TTITLE4=Troubles
TTITLE5=Rock Wit You
TTITLE6=A Woman's Worth
TTITLE7=Jane Doe
TTITLE8=Goodbye
TTITLE9=The Life
TTITLE10=Mr. Man
TTITLE11=Never Felt This Way
TTITLE12=Butterflyz
TTITLE13=Why Do I Feel So Sad
TTITLE14=Caged Bird
TTITLE15=Loving You
EXTD=
EXTT0=
EXTT1=
EXTT2=
EXTT3=
EXTT4=
EXTT5=
EXTT6=
EXTT7=
EXTT8=
EXTT9=
EXTT10=duet with Jimmy Cozier
EXTT11=interlude
EXTT12=
EXTT13=
EXTT14=
EXTT15=bonus track
PLAYORDER=
